<svg version="1.2" xmlns="http://www.w3.org/2000/svg" viewBox="0 0 500 500" width="500" height="500">
	<title>Nytt projekt</title>
	<style>
		.s0 { fill: #000000;stroke: #000000;stroke-miterlimit:0 } 
		.s1 { fill: #000000;stroke: #000000;stroke-miterlimit:0;stroke-width: 47 } 
		.s2 { fill: #ffffff;stroke: #000000;stroke-miterlimit:0;stroke-width: 38 } 
		.s3 { fill: #ffffff;stroke: #000000;stroke-miterlimit:0;stroke-width: 15 } 
		.s4 { fill: #ffffff;stroke: #000000;stroke-miterlimit:0;stroke-width: 47 } 
	</style>
	<g id="Layer 1">
		<path id="Form 1" fill-rule="evenodd" class="s0" d="m249.5 420c-84.9 0-153.5-71.7-153.5-160.5 0-88.8 68.6-160.5 153.5-160.5 84.9 0 153.5 71.7 153.5 160.5 0 88.8-68.6 160.5-153.5 160.5z"/>
		<path id="Form 3" fill-rule="evenodd" class="s1" d="m419.5 68.6l-335.7 375.5z"/>
		<path id="Form 4" fill-rule="evenodd" class="s2" d="m250 335.2c-50.3 0-91-38.2-91-85.6 0-47.3 40.7-85.6 91-85.6 50.3 0 90.9 38.3 90.9 85.6 0 47.4-40.6 85.6-90.9 85.6z"/>
		<path id="Form 7" fill-rule="evenodd" class="s3" d="m210.6 276c5 3.8 10.2 9.4 16 11.9 13.1 5.6 35 4.9 48.3-0.2 7.4-2.9 10.9-9.6 15.2-16 0.2-0.3 4.4-6.2 4-6.6-0.6-0.7-4.1-1.1-5.1-1.6-1.4-0.7-8-4.6-9.7-3.5-3.7 2.4-6 10.5-11.8 13.2-9.1 4.2-22.4 4-32.3 3.9-10.9-0.1-19.5-15.6-28.2-20.7-2.3-1.3-0.6 16.4 3.6 19.6z"/>
		<path id="Form 5" fill-rule="evenodd" class="s4" d="m215.1 210.9c-0.9 1.8 0.4 5.5 1.3 7 2.8 4.7 8.4 3.4 12.3 0.6 1.3-0.8 1.1-1.9 1.1-3.3-0.1-3.6-4-6-7.1-6.9-0.7-0.3-7.3 1.9-7.6 2.6z"/>
		<path id="Form 6" fill-rule="evenodd" class="s4" d="m278.7 215.3c-1.8-0.3-3.8-0.4-5.6-0.2-2.1 0.3-4.7 6-3.4 7.9 1.5 2.4 10.4 4.5 12.4 1.8 1.1-1.5 2.2-5.7 1.5-7.4-0.5-1.2-4.5-2.1-4.9-2.1z"/>
	</g>
</svg>